<svg width="135" height="94" viewBox="0 0 135 94" xmlns="http://www.w3.org/2000/svg"><title>airplane</title><g fill="none" fill-rule="evenodd"><g transform="translate(6.991 1)"><path d="M29.58 47.448s.925 1.47 1.51 2.06c.602.61 2.053 1.54 2.053 1.54s-1.477.984-2.054 1.568c-.61.616-1.508 2.032-1.508 2.032s-.905-1.46-1.47-2.032c-.622-.629-2.092-1.568-2.092-1.568s1.48-.92 2.092-1.54c.575-.58 1.47-2.06 1.47-2.06z" fill="#DAE2E6"/><ellipse stroke="#DAE2E6" stroke-width="2" stroke-linecap="round" stroke-linejoin="round" cx="7.272" cy="20.553" rx="3.677" ry="3.716"/><path d="M39.624 61.215a20.96 20.96 0 0 0 .266-3.337c0-11.375-9.124-20.597-20.378-20.597-9.204 0-16.983 6.167-19.512 14.635m43.633 14.647c0-2.867-2.3-5.191-5.137-5.191-2.837 0-5.136 2.324-5.136 5.191" stroke="#DAE2E6" stroke-width="2" stroke-linecap="round" stroke-linejoin="round"/><path d="M96.646 0s.69 1.1 1.128 1.541c.451.456 1.536 1.152 1.536 1.152s-1.104.736-1.536 1.173c-.456.46-1.128 1.52-1.128 1.52s-.677-1.093-1.1-1.52c-.465-.47-1.565-1.173-1.565-1.173s1.107-.689 1.565-1.152c.43-.434 1.1-1.541 1.1-1.541zM59.77 55.889s.585.93.955 1.305c.382.386 1.301.975 1.301.975s-.935.624-1.3.993c-.387.391-.956 1.288-.956 1.288s-.573-.925-.931-1.288c-.394-.398-1.325-.993-1.325-.993s.937-.583 1.325-.975c.364-.368.93-1.305.93-1.305zm33.262-13.226s.69 1.099 1.128 1.541c.451.456 1.536 1.152 1.536 1.152s-1.104.736-1.536 1.172c-.456.462-1.128 1.52-1.128 1.52s-.677-1.092-1.1-1.52c-.465-.47-1.565-1.172-1.565-1.172s1.107-.69 1.565-1.152c.43-.435 1.1-1.541 1.1-1.541z" fill="#DAE2E6"/><path d="M115.085 22.72l-5.097-5.152m6.146 70.387l-6.712 3.987" stroke="#DAE2E6" stroke-width="2" stroke-linecap="round" fill="#DAE2E6"/><path d="M117.7 74.562a13.742 13.742 0 0 0 1.906-7.009c0-7.563-6.066-13.694-13.55-13.694-5.808 0-10.763 3.694-12.69 8.886" stroke="#DAE2E6" stroke-width="2" stroke-linecap="round" stroke-linejoin="round"/><path d="M106.886 82.091c0-3.685-.958-7.145-2.635-10.138m-3.469-4.562c-3.677-3.647-8.715-5.896-14.274-5.896-10.57 0-19.261 8.134-20.278 18.548m8.32 4.394c-1.515-2.408-4.179-4.006-7.212-4.006-4.718 0-8.543 3.866-8.543 8.635" stroke="#DAE2E6" stroke-width="2" stroke-linecap="round" stroke-linejoin="round"/></g><g transform="translate(1 1)"><path d="M21.383 32.47h1.86m4.207 0h101.258a3.906 3.906 0 0 1 3.899 3.91 3.902 3.902 0 0 1-3.895 3.908H4.288a3.904 3.904 0 0 1-3.895-3.909 3.9 3.9 0 0 1 3.9-3.908h14.072" stroke="#404F54" stroke-width="2" stroke-linecap="round" fill="#F5F6F7"/><g transform="translate(17.973 36.078)"><ellipse stroke="#404F54" stroke-width="2" stroke-linecap="round" fill="#FFF" cx="8.986" cy="9.02" rx="8.986" ry="9.02"/><ellipse fill="#FF854F" cx="9.586" cy="9.621" rx="5.392" ry="5.412"/><path d="M5.718 3.946a6.041 6.041 0 0 0-2.75 5.074c0 3.336 2.694 6.04 6.018 6.04 3.325 0 6.02-2.704 6.02-6.04 0-3.337-2.695-6.041-6.02-6.041" stroke="#404F54" stroke-width="2" stroke-linecap="round"/></g><g transform="translate(97.054 36.078)"><ellipse stroke="#404F54" stroke-width="2" stroke-linecap="round" fill="#FFF" cx="8.986" cy="9.02" rx="8.986" ry="9.02"/><ellipse fill="#FF854F" cx="9.586" cy="9.621" rx="5.392" ry="5.412"/><path d="M5.718 3.946a6.041 6.041 0 0 0-2.75 5.074c0 3.336 2.694 6.04 6.018 6.04 3.325 0 6.02-2.704 6.02-6.04 0-3.337-2.695-6.041-6.02-6.041" stroke="#404F54" stroke-width="2" stroke-linecap="round"/></g><rect stroke="#404F54" stroke-width="2" stroke-linecap="round" fill="#E0EAEF" x="62.606" y=".113" width="6.59" height="24.052" rx="3.295"/><path d="M46.414 20.484a27.32 27.32 0 0 0-7.473 18.82c0 15.11 12.205 27.359 27.26 27.359 15.054 0 27.258-12.25 27.258-27.36S81.255 11.944 66.2 11.944a27.07 27.07 0 0 0-11.75 2.665m-2.796 1.552c-.44.28-.873.572-1.296.876" fill="#F5F6F7"/><path d="M48.508 19.453a24.022 24.022 0 0 0-6.571 16.548c0 13.287 10.731 24.058 23.969 24.058 13.238 0 23.969-10.771 23.969-24.058 0-13.286-10.731-24.057-23.969-24.057-3.7 0-7.203.841-10.332 2.344m-2.458 1.364a24.01 24.01 0 0 0-1.14.77" fill="#FFF"/><path d="M46.414 20.484a27.32 27.32 0 0 0-7.473 18.82c0 15.11 12.205 27.359 27.26 27.359 15.054 0 27.258-12.25 27.258-27.36S81.255 11.944 66.2 11.944a27.07 27.07 0 0 0-11.75 2.665m-2.796 1.552c-.44.28-.873.572-1.296.876" stroke="#404F54" stroke-width="2" stroke-linecap="round"/><ellipse fill="#F5F6F7" cx="66.2" cy="41.057" rx="9.586" ry="9.621"/><ellipse fill="#E0EAEF" cx="66.2" cy="41.057" rx="4.106" ry="4.121"/><rect stroke="#404F54" stroke-width="2" stroke-linecap="round" fill="#BFF0EA" x="56.615" y="21.492" width="17.973" height="4.81" rx="2.405"/><rect fill="#71D5CA" x="60.997" y="22.184" width="12.804" height="3.427" rx="1.713"/></g></g></svg>