<svg width="152" height="108" viewBox="0 0 152 108" xmlns="http://www.w3.org/2000/svg"><title>heli</title><g fill="none" fill-rule="evenodd"><g transform="translate(1)"><path d="M34.448 55.184s1.076 1.71 1.757 2.396c.701.709 2.391 1.79 2.391 1.79s-1.72 1.146-2.391 1.824c-.71.717-1.757 2.364-1.757 2.364s-1.053-1.7-1.712-2.364c-.724-.73-2.436-1.823-2.436-1.823s1.723-1.07 2.436-1.79c.67-.677 1.712-2.397 1.712-2.397z" fill="#DAE2E6"/><ellipse stroke="#DAE2E6" stroke-width="2" stroke-linecap="round" stroke-linejoin="round" cx="8.468" cy="23.904" rx="4.282" ry="4.322"/><path d="M46.143 71.196c.204-1.263.31-2.56.31-3.881 0-13.23-10.625-23.956-23.731-23.956C12.004 43.36 2.946 50.532 0 60.381m50.812 17.035c0-3.335-2.678-6.038-5.982-6.038-3.303 0-5.981 2.703-5.981 6.038" stroke="#DAE2E6" stroke-width="2" stroke-linecap="round" stroke-linejoin="round"/><path d="M112.548 0s.805 1.279 1.314 1.793c.525.53 1.789 1.34 1.789 1.34s-1.286.855-1.79 1.363c-.53.536-1.313 1.768-1.313 1.768s-.788-1.27-1.28-1.768c-.542-.547-1.823-1.364-1.823-1.364s1.289-.801 1.822-1.34c.501-.505 1.28-1.792 1.28-1.792zM69.604 65.001s.682 1.083 1.113 1.518c.445.449 1.515 1.135 1.515 1.135s-1.09.725-1.515 1.155c-.45.454-1.113 1.497-1.113 1.497s-.667-1.076-1.084-1.497c-.459-.464-1.543-1.155-1.543-1.155s1.091-.679 1.543-1.135c.424-.428 1.084-1.518 1.084-1.518zm38.736-15.383s.804 1.279 1.313 1.793c.525.53 1.789 1.34 1.789 1.34s-1.286.856-1.789 1.363c-.531.537-1.314 1.769-1.314 1.769s-.788-1.271-1.28-1.769c-.542-.546-1.823-1.363-1.823-1.363s1.29-.801 1.823-1.34c.5-.506 1.28-1.793 1.28-1.793z" fill="#DAE2E6"/><path d="M134.021 26.424l-5.935-5.992m7.157 81.864l-7.817 4.636" stroke="#DAE2E6" stroke-width="2" stroke-linecap="round" fill="#DAE2E6"/><path d="M137.066 86.719a15.967 15.967 0 0 0 2.22-8.152c0-8.796-7.064-15.927-15.779-15.927-6.764 0-12.535 4.297-14.778 10.335" stroke="#DAE2E6" stroke-width="2" stroke-linecap="round" stroke-linejoin="round"/><path d="M124.473 95.476a24.02 24.02 0 0 0-3.07-11.792m-4.038-5.305c-4.282-4.242-10.15-6.858-16.623-6.858-12.31 0-22.43 9.46-23.615 21.572m9.69 5.111c-1.765-2.8-4.867-4.659-8.4-4.659-5.494 0-9.948 4.496-9.948 10.043" stroke="#DAE2E6" stroke-width="2" stroke-linecap="round" stroke-linejoin="round"/></g><g transform="translate(17.744 3.497)"><g transform="translate(109.708 40.735)"><ellipse stroke="#404F54" stroke-width="2" stroke-linecap="round" fill="#C0F0EB" cx="11.339" cy="11.366" rx="11.339" ry="11.366"/><ellipse stroke="#71D5CA" stroke-width="10" stroke-dasharray="10,11" transform="rotate(30 11.339 11.366)" cx="11.339" cy="11.366" rx="6.979" ry="6.996"/></g><path d="M57.738 11.59a29.107 29.107 0 0 0-13.474-3.285H32.777c-16.172 0-29.289 13.144-29.289 29.36v11.34h70.065v-11.34a29.273 29.273 0 0 0-5.164-16.654m-2.797-3.469a29.502 29.502 0 0 0-1.973-1.914" stroke="#404F54" stroke-width="2" stroke-linecap="round" stroke-linejoin="round" fill="#FFF"/><path d="M38.922 8.305h-6.145c-16.172 0-29.289 13.144-29.289 29.36v11.34l35.362.02.072-40.72z" stroke="#404F54" stroke-width="2" stroke-linecap="round" stroke-linejoin="round" fill="#FFB28F"/><path d="M38.236 27.327h-3.155c-8.302 0-15.037 6.749-15.037 15.073v5.823l18.155.01.037-20.906z" fill="#FF854F"/><path d="M97.18 48.954h1.637m6.455 0h16.818a2.1 2.1 0 0 1 2.096 2.099v2.293a2.097 2.097 0 0 1-2.093 2.099H4.186a2.099 2.099 0 0 1-2.093-2.099v-2.293c0-1.16.936-2.099 2.095-2.099h89.43" stroke="#404F54" stroke-width="2" stroke-linecap="round" fill="#F5F6F7"/><rect stroke="#404F54" stroke-width="2" stroke-linecap="round" fill="#C4D7E1" transform="matrix(1 0 0 -1 0 117.38)" x="13.953" y="55.445" width="48.14" height="6.49" rx="3"/><rect fill="#E0EAEF" x="2.723" y="51.5" width="120.833" height="3.245" rx="1.623"/><ellipse fill="#404F54" cx="120.349" cy="52.101" rx="1.047" ry="1.049"/><path stroke="#2FC3B6" stroke-width="2" stroke-linecap="round" d="M47.136 21.24v19.33h18.847"/><path stroke="#BFF0EA" stroke-width="2" stroke-linecap="round" d="M54.113 21.618v11.959h11.66"/><path d="M47.31 40.43l15.84-15.878" stroke="#2FC3B6" stroke-width="2" stroke-linecap="round"/><path d="M39.247 8.477V.724M.269.374H3.18m4.04 0h71.12M6.66 63.582l5.449 5.463h54.044l3.973-4.95m-46.872 4.431l1.563-12.631m28.605 12.631l-1.564-12.631" stroke="#404F54" stroke-width="2" stroke-linecap="round"/><path d="M34.98 14.33s-10.28-1.303-17.921 6.807m-2.703 3.481a26.592 26.592 0 0 0-1.136 1.96" stroke="#FFF" stroke-width="5" stroke-linecap="round" stroke-linejoin="round"/></g></g></svg>