<svg width="100" height="76" viewBox="0 0 100 76" xmlns="http://www.w3.org/2000/svg"><title>Group</title><g fill="none" fill-rule="evenodd"><path stroke="#404F54" stroke-width="2" stroke-linecap="round" stroke-linejoin="round" fill="#47DACD" d="M28.013 74.664l-1.788-30.338L98.623 1.391z"/><path stroke="#404F54" stroke-width="2" stroke-linecap="round" stroke-linejoin="round" fill="#E0EAEF" d="M28.013 74.664l5.384-26.503 65.226-46.77z"/><path stroke="#404F54" stroke-width="2" stroke-linecap="round" stroke-linejoin="round" fill="#FFF" d="M75.938 63.88L33.397 48.161l65.226-46.77z"/><path fill="#FFB28F" d="M52.87 34.198L98.624 1.39 85.958 36.28l-.897 2.47z"/><path fill="#FF854F" d="M60.992 28.374L98.623 1.391l-9.882 27.221z"/><path stroke="#404F54" stroke-width="2" stroke-linecap="round" stroke-linejoin="round" d="M75.938 63.88L33.397 48.161l65.226-46.77z"/><path stroke="#404F54" stroke-width="2" stroke-linecap="round" stroke-linejoin="round" fill="#FFF" d="M26.07 44.764l-24.9-8.826L98.624 1.39z"/><path fill="#FFB28F" d="M41.738 21.557L98.623 1.39 49.576 30.712z"/><path fill="#FF854F" d="M53.205 17.492l45.418-16.1-41.208 24.634z"/><path stroke="#404F54" stroke-width="2" stroke-linecap="round" stroke-linejoin="round" d="M26.07 44.764l-24.9-8.826L98.624 1.39z"/></g></svg>